Format                                  : Matroska
Format version                          : Version 2
File size                       : 932 MiB
Duration                                : 2h 7mn
Overall bit rate                        : 1 020 Kbps
Encoded date                            : UTC 2012-01-19 16:46:04
Writing application             : mkvmerge v4.9.1 ('Ich will') built on Jul 11 2011 23:53:15
Writing library                 : libebml v1.2.1 + libmatroska v1.1.1

Video
ID                                      : 1
Format                                  : AVC
Format/Info                     : Advanced Video Codec
Format profile                          : High@L3.1
Format settings, CABAC                  : Yes
Format settings, ReFrames       : 4 frames
Muxing mode                     : Header stripping
Codec ID                                : V_MPEG4/ISO/AVC
Duration                                : 2h 7mn
Bit rate                                : 763 Kbps
Width                           : 1 280 pixels
Height                                  : 528 pixels
Display aspect ratio                    : 2.40:1
Frame rate                              : 23.976 fps
Color space                     : YUV
Chroma subsampling                      : 4:2:0
Bit depth                       : 8 bits
Scan type                       : Progressive
Bits/(Pixel*Frame)                      : 0.047
Stream size                     : 679 MiB (73%)
Writing library                 : x264 core 116 r2074 2641b9e

Language                                : English

Audio #1
ID                                      : 2
Format                                  : AC-3
Format/Info                     : Audio Coding 3
Mode extension                          : CM (complete main)
Muxing mode                     : Header stripping
Codec ID                                : A_AC3
Duration                                : 2h 7mn
Bit rate mode                   : Constant
Bit rate                                : 128 Kbps
Channel(s)                              : 6 channels
Channel positions               : Front: L C R, Side: L R, LFE
Sampling rate                   : 48.0 KHz
Bit depth                       : 16 bits
Compression mode                        : Lossy
Stream size                     : 117 MiB (13%)
Language                                : English

Audio #2
ID                                      : 3
Format                                  : AC-3
Format/Info                     : Audio Coding 3
Mode extension                          : CM (complete main)
Muxing mode                     : Header stripping
Codec ID                                : A_AC3
Duration                                : 2h 7mn
Bit rate mode                   : Constant
Bit rate                                : 128 Kbps
Channel(s)                              : 2 channels
Channel positions               : Front: L R
Sampling rate                   : 44.1 KHz
Bit depth                       : 16 bits
Compression mode                        : Lossy
Stream size                     : 117 MiB (13%)
Language                                : Hindi

Screen Shots

[img]http://img843.imageshack.us/img843/7910/vlcsnap2012011922h30m53.png[/img]

[img]http://img193.imageshack.us/img193/4985/vlcsnap2012011922h33m16.png[/img]

[img]http://img259.imageshack.us/img259/2131/vlcsnap2012011922h36m59.png[/img]

[img]http://img580.imageshack.us/img580/909/vlcsnap2012011922h36m52.png[/img]

[img]http://img854.imageshack.us/img854/3563/vlcsnap2012011922h35m31.png[/img]

[img]http://img201.imageshack.us/img201/6660/vlcsnap2012011922h34m47.png[/img]

[img]http://img94.imageshack.us/img94/3808/vlcsnap2012011922h34m28.png[/img]

